<svg xmlns="http://www.w3.org/2000/svg" viewBox="0 0 164.83 98.82"><defs><style>.cls-1{isolation:isolate;}.cls-2{fill:#e62b00;}.cls-3{fill:#ffb92e;}.cls-4{fill:#00ab18;mix-blend-mode:multiply;}.cls-5{fill:#ff2ed0;}.cls-6{fill:#03c1fb;}.cls-7{fill:#4c4c4c;}</style></defs><g class="cls-1"><g id="Capa_2" data-name="Capa 2"><g id="Thumbnail_Imagen" data-name="Thumbnail Imagen"><path class="cls-2" d="M2.75,39.23v8.64H14.38A9.59,9.59,0,0,0,24,38.28h0a9.59,9.59,0,0,0-9.59-9.6h-5a1,1,0,0,1-1.05-1v-.13a1,1,0,0,1,1.05-1.05H21.23V17.82H9.59A9.59,9.59,0,0,0,0,27.41H0A9.59,9.59,0,0,0,9.59,37h5a1.06,1.06,0,0,1,1.07,1.07v.09a1.06,1.06,0,0,1-1.07,1.07Z"/><path class="cls-3" d="M41.27,39V.76H33.22v39a8.07,8.07,0,0,0,8.07,8.07h4.32V39Z"/><rect class="cls-4" x="30.26" y="17.82" width="15.16" height="8.66"/><path class="cls-5" d="M69.82,17.82v16.8a4.71,4.71,0,1,1-9.42,0V17.82H51.7V34.69a13.18,13.18,0,0,0,26.36,0V17.82Z"/><rect class="cls-4" x="69.82" y="17.82" width="8.24" height="30.05"/><rect class="cls-5" x="106.02" width="8.24" height="47.48"/><rect class="cls-2" x="120.3" width="8.24" height="9.24"/><rect class="cls-6" x="120.3" y="17.65" width="8.24" height="29.83"/><path class="cls-4" d="M106,32.45a6.73,6.73,0,1,1-6.73-6.73A6.73,6.73,0,0,1,106,32.45Zm-6.84-15a15.08,15.08,0,1,0,15.08,15.08A15.08,15.08,0,0,0,99.18,17.49Z"/><path class="cls-3" d="M156.49,32.45a6.73,6.73,0,1,1-6.73-6.73A6.73,6.73,0,0,1,156.49,32.45Zm-6.84-15a15.08,15.08,0,1,0,15.08,15.08A15.08,15.08,0,0,0,149.65,17.49Z"/><path class="cls-7" d="M29.77,62v23.5q0,6.19-3.75,9.76T15.61,98.82c-4.38,0-7.79-1.2-10.2-3.59s-3.63-5.67-3.63-9.82V62H6.37V85.55a9.44,9.44,0,0,0,2.38,6.88q2.37,2.44,7.14,2.44c3,0,5.3-.8,6.91-2.41s2.43-3.93,2.43-6.95V62Z"/><path class="cls-7" d="M43.9,83.32v15H39.33V62h10q6.77,0,10,2.57t3.24,7.74q0,7.23-7.28,9.73l10,16.27H59.92l-8.79-15Zm0-3.88h5.44c2.95,0,5.1-.57,6.46-1.73a6.43,6.43,0,0,0,2-5.17,5.91,5.91,0,0,0-2.06-5C54.4,66.48,52.17,66,49.09,66H43.9Z"/><path class="cls-7" d="M71,62H81.33q7.31,0,10.55,2.17T95.12,71a8,8,0,0,1-1.77,5.33,8.45,8.45,0,0,1-5.14,2.72v.25c2.8.48,4.86,1.44,6.17,2.9a8.3,8.3,0,0,1,2,5.79A9.29,9.29,0,0,1,93,95.59q-3.33,2.73-9.29,2.73H71Zm4.57,15.45h6.7q4.27,0,6.21-1.37t1.94-4.57a4.68,4.68,0,0,0-2.12-4.3q-2.13-1.31-6.72-1.31h-6Zm0,3.82V94.45h7.32c2.92,0,5.08-.57,6.49-1.69a6.18,6.18,0,0,0,2.11-5.12,5.46,5.46,0,0,0-2.24-4.81q-2.24-1.55-6.7-1.55Z"/><path class="cls-7" d="M126.31,98.32l-4.37-11.25h-14.4l-4.33,11.25H98.59l14.19-36.46h4.12l14.16,36.46ZM120.58,83,116.5,72l-1.74-5.44q-.74,3-1.56,5.44l-4.12,11Z"/><path class="cls-7" d="M164.83,98.32H159.5L140.05,68.17h-.2l.12,2q.3,4.51.3,7.85V98.32h-4.22V62h5.29l1.12,1.76L154.38,82.2l6.33,9.86h.2c0-.4-.1-1.82-.2-4.26s-.15-4.21-.15-5.3V62h4.27Z"/></g></g></g></svg>