<svg xmlns="http://www.w3.org/2000/svg" viewBox="0 0 314.77 15.04"><g id="Capa_2" data-name="Capa 2"><g id="TEXT"><path class="cls-1" d="M.88,0A.89.89,0,1,1,0,.88.88.88,0,0,1,.88,0Zm0,2.21A.89.89,0,1,1,.88,4a.89.89,0,0,1,0-1.77Zm0,2.21a.89.89,0,1,1,0,1.77.89.89,0,0,1,0-1.77Zm0,2.21a.89.89,0,1,1,0,1.77.89.89,0,0,1,0-1.77Zm0,2.21a.89.89,0,1,1,0,1.77.89.89,0,0,1,0-1.77Zm0,2.21a.89.89,0,1,1,0,1.77.89.89,0,0,1,0-1.77Zm0,2.21A.89.89,0,1,1,.88,15a.89.89,0,0,1,0-1.77ZM3.54,4.42a.89.89,0,1,1-.89.88A.89.89,0,0,1,3.54,4.42Zm2.65,0a.89.89,0,1,1-.88.88A.89.89,0,0,1,6.19,4.42Zm2.65,0A.89.89,0,1,1,8,5.3.89.89,0,0,1,8.84,4.42Zm1.33,2.21a.89.89,0,1,1-.88.88A.89.89,0,0,1,10.17,6.63Zm0,2.21a.89.89,0,1,1-.88.88A.89.89,0,0,1,10.17,8.84Zm0,2.21a.89.89,0,1,1,0,1.77.89.89,0,0,1,0-1.77Zm0,2.21a.89.89,0,1,1,0,1.77.89.89,0,0,1,0-1.77Z" transform="translate(0 0)"/><path class="cls-1" d="M16.8,6.63a.89.89,0,1,1-.88.88A.88.88,0,0,1,16.8,6.63Zm0,2.21a.89.89,0,1,1-.88.88A.88.88,0,0,1,16.8,8.84Zm0,2.21a.89.89,0,1,1-.88.89A.88.88,0,0,1,16.8,11.05Zm1.33-6.63a.89.89,0,1,1-.89.88A.89.89,0,0,1,18.13,4.42Zm0,8.84a.89.89,0,1,1-.89.89A.89.89,0,0,1,18.13,13.26Zm2.65-8.84a.89.89,0,1,1-.88.88A.88.88,0,0,1,20.78,4.42Zm0,8.84a.89.89,0,1,1-.88.89A.88.88,0,0,1,20.78,13.26Zm2.65-8.84a.89.89,0,1,1-.88.88A.89.89,0,0,1,23.43,4.42Zm0,8.84a.89.89,0,1,1-.88.89A.89.89,0,0,1,23.43,13.26Zm2.66-8.84a.89.89,0,1,1-.89.88A.89.89,0,0,1,26.09,4.42Zm0,8.84a.89.89,0,1,1-.89.89A.89.89,0,0,1,26.09,13.26Zm1.32-6.63a.89.89,0,1,1-.88.88A.89.89,0,0,1,27.41,6.63Zm0,2.21a.89.89,0,1,1-.88.88A.89.89,0,0,1,27.41,8.84Zm0,2.21a.89.89,0,1,1-.88.89A.89.89,0,0,1,27.41,11.05Z" transform="translate(0 0)"/><path class="cls-1" d="M34,0a.89.89,0,1,1-.88.88A.88.88,0,0,1,34,0Zm0,13.26a.89.89,0,1,1-.88.89A.89.89,0,0,1,34,13.26ZM36.7,0a.89.89,0,0,1,0,1.77A.89.89,0,1,1,36.7,0Zm0,2.21a.89.89,0,1,1-.89.88A.89.89,0,0,1,36.7,2.21Zm0,2.21a.89.89,0,1,1-.89.88A.89.89,0,0,1,36.7,4.42Zm0,2.21a.89.89,0,1,1-.89.88A.89.89,0,0,1,36.7,6.63Zm0,2.21a.89.89,0,1,1-.89.88A.89.89,0,0,1,36.7,8.84Zm0,2.21a.89.89,0,1,1-.89.89A.89.89,0,0,1,36.7,11.05Zm0,2.21a.89.89,0,1,1-.89.89A.89.89,0,0,1,36.7,13.26Zm2.65,0a.89.89,0,1,1-.89.89A.89.89,0,0,1,39.35,13.26Z" transform="translate(0 0)"/><path class="cls-1" d="M48.63,11.05a.89.89,0,1,1,0,1.77.89.89,0,0,1,0-1.77ZM50,8.84a.89.89,0,1,1-.89.88A.89.89,0,0,1,50,8.84Zm0,4.42a.89.89,0,1,1-.89.89A.89.89,0,0,1,50,13.26Zm1.32-8.84a.89.89,0,1,1-.88.88A.89.89,0,0,1,51.28,4.42Zm1.33,4.42a.89.89,0,1,1-.88.88A.89.89,0,0,1,52.61,8.84Zm0,4.42a.89.89,0,1,1,0,1.77.89.89,0,0,1,0-1.77Zm1.33-8.84a.89.89,0,1,1-.89.88A.89.89,0,0,1,53.94,4.42Zm1.32,4.42a.89.89,0,1,1-.88.88A.89.89,0,0,1,55.26,8.84Zm0,4.42a.89.89,0,1,1-.88.89A.89.89,0,0,1,55.26,13.26Zm1.33-8.84a.89.89,0,1,1-.88.88A.88.88,0,0,1,56.59,4.42Zm1.33,2.21a.89.89,0,1,1-.89.88A.89.89,0,0,1,57.92,6.63Zm0,2.21a.89.89,0,1,1-.89.88A.89.89,0,0,1,57.92,8.84Zm0,2.21a.89.89,0,1,1-.89.89A.89.89,0,0,1,57.92,11.05Zm1.32,2.21a.89.89,0,1,1-.88.89A.89.89,0,0,1,59.24,13.26Z" transform="translate(0 0)"/><path class="cls-1" d="M64.55,2.21a.89.89,0,1,1-.89.88A.89.89,0,0,1,64.55,2.21Zm0,2.21a.89.89,0,1,1-.89.88A.89.89,0,0,1,64.55,4.42Zm0,2.21a.89.89,0,1,1-.89.88A.89.89,0,0,1,64.55,6.63Zm0,2.21a.89.89,0,1,1-.89.88A.89.89,0,0,1,64.55,8.84Zm0,2.21a.89.89,0,1,1-.89.89A.89.89,0,0,1,64.55,11.05ZM67.2,0a.87.87,0,0,1,.88.88.88.88,0,1,1-1.76,0A.87.87,0,0,1,67.2,0Zm0,13.26a.89.89,0,1,1-.88.89A.88.88,0,0,1,67.2,13.26Zm1.33-6.63a.89.89,0,1,1-.89.88A.89.89,0,0,1,68.53,6.63ZM69.85,0A.89.89,0,1,1,69,.88.88.88,0,0,1,69.85,0Zm0,4.42A.89.89,0,1,1,69,5.3.89.89,0,0,1,69.85,4.42Zm0,4.42a.89.89,0,1,1-.88.88A.89.89,0,0,1,69.85,8.84Zm0,4.42a.89.89,0,1,1-.88.89A.89.89,0,0,1,69.85,13.26ZM72.51,0a.89.89,0,0,1,0,1.77.89.89,0,1,1,0-1.77Zm0,4.42a.89.89,0,1,1-.89.88A.89.89,0,0,1,72.51,4.42Zm0,4.42a.89.89,0,1,1-.89.88A.89.89,0,0,1,72.51,8.84Zm0,4.42a.89.89,0,1,1-.89.89A.89.89,0,0,1,72.51,13.26Zm2.65-11a.89.89,0,1,1-.88.88A.88.88,0,0,1,75.16,2.21Zm0,2.21a.89.89,0,1,1-.88.88A.88.88,0,0,1,75.16,4.42Zm0,2.21a.89.89,0,1,1-.88.88A.88.88,0,0,1,75.16,6.63Zm0,2.21a.89.89,0,1,1-.88.88A.88.88,0,0,1,75.16,8.84Zm0,4.42a.89.89,0,1,1-.88.89A.88.88,0,0,1,75.16,13.26Z" transform="translate(0 0)"/><path class="cls-1" d="M80.46,6.63a.89.89,0,1,1-.88.88A.89.89,0,0,1,80.46,6.63Zm1.33-2.21a.89.89,0,0,1,0,1.77.89.89,0,1,1,0-1.77Zm0,4.42a.89.89,0,0,1,0,1.77.89.89,0,1,1,0-1.77Zm0,4.42a.89.89,0,1,1-.89.89A.88.88,0,0,1,81.79,13.26Zm2.65-8.84a.89.89,0,1,1-.88.88A.89.89,0,0,1,84.44,4.42Zm0,4.42a.89.89,0,1,1-.88.88A.89.89,0,0,1,84.44,8.84Zm0,4.42a.89.89,0,1,1-.88.89A.89.89,0,0,1,84.44,13.26ZM87.1,4.42a.89.89,0,1,1-.89.88A.89.89,0,0,1,87.1,4.42Zm0,4.42a.89.89,0,1,1-.89.88A.89.89,0,0,1,87.1,8.84Zm0,4.42a.89.89,0,1,1-.89.89A.89.89,0,0,1,87.1,13.26Zm2.65-8.84a.89.89,0,1,1-.89.88A.89.89,0,0,1,89.75,4.42Zm0,4.42a.89.89,0,1,1-.89.88A.89.89,0,0,1,89.75,8.84Zm0,4.42a.89.89,0,1,1-.89.89A.89.89,0,0,1,89.75,13.26Zm1.32-2.21a.89.89,0,1,1-.88.89A.89.89,0,0,1,91.07,11.05Z" transform="translate(0 0)"/><path class="cls-1" d="M96.38,4.42a.89.89,0,1,1-.89.88A.89.89,0,0,1,96.38,4.42ZM99,0a.87.87,0,0,1,.88.88.88.88,0,1,1-1.76,0A.87.87,0,0,1,99,0Zm0,2.21a.89.89,0,1,1-.88.88A.88.88,0,0,1,99,2.21Zm0,2.21a.89.89,0,1,1-.88.88A.88.88,0,0,1,99,4.42Zm0,2.21a.89.89,0,1,1-.88.88A.88.88,0,0,1,99,6.63Zm0,2.21a.89.89,0,1,1-.88.88A.88.88,0,0,1,99,8.84Zm0,2.21a.89.89,0,1,1-.88.89A.88.88,0,0,1,99,11.05Zm1.33,2.21a.89.89,0,1,1-.89.89A.89.89,0,0,1,100.36,13.26Zm1.32-8.84a.89.89,0,1,1-.88.88A.89.89,0,0,1,101.68,4.42ZM103,13.26a.89.89,0,1,1-.89.89A.88.88,0,0,1,103,13.26Zm1.33-8.84a.89.89,0,1,1-.89.88A.89.89,0,0,1,104.34,4.42Zm1.32,8.84a.89.89,0,1,1-.88.89A.89.89,0,0,1,105.66,13.26Z" transform="translate(0 0)"/><path class="cls-1" d="M112.29,4.42a.89.89,0,1,1-.88.88A.89.89,0,0,1,112.29,4.42Zm0,2.21a.89.89,0,1,1-.88.88A.89.89,0,0,1,112.29,6.63Zm0,2.21a.89.89,0,1,1-.88.88A.89.89,0,0,1,112.29,8.84Zm0,2.21a.89.89,0,1,1-.88.89A.89.89,0,0,1,112.29,11.05Zm1.33,2.21a.89.89,0,1,1-.89.89A.88.88,0,0,1,113.62,13.26Zm2.65,0a.89.89,0,1,1-.88.89A.89.89,0,0,1,116.27,13.26Zm2.66,0a.89.89,0,1,1-.89.89A.89.89,0,0,1,118.93,13.26Zm2.65-8.84a.89.89,0,0,1,0,1.77.89.89,0,1,1,0-1.77Zm0,2.21a.89.89,0,0,1,0,1.77.89.89,0,1,1,0-1.77Zm0,2.21a.89.89,0,0,1,0,1.77.89.89,0,1,1,0-1.77Zm0,2.21a.89.89,0,1,1-.89.89A.88.88,0,0,1,121.58,11.05Zm1.33,2.21a.89.89,0,1,1-.89.89A.89.89,0,0,1,122.91,13.26Z" transform="translate(0 0)"/><path class="cls-1" d="M128.21,6.63a.89.89,0,1,1-.89.88A.89.89,0,0,1,128.21,6.63Zm0,2.21a.89.89,0,1,1-.89.88A.89.89,0,0,1,128.21,8.84Zm0,2.21a.89.89,0,1,1-.89.89A.89.89,0,0,1,128.21,11.05Zm1.33-6.63a.89.89,0,1,1-.89.88A.89.89,0,0,1,129.54,4.42Zm0,8.84a.89.89,0,1,1-.89.89A.89.89,0,0,1,129.54,13.26Zm2.65-8.84a.89.89,0,1,1-.89.88A.89.89,0,0,1,132.19,4.42Zm0,8.84a.89.89,0,1,1-.89.89A.89.89,0,0,1,132.19,13.26Zm2.65-8.84a.89.89,0,1,1-.88.88A.89.89,0,0,1,134.84,4.42Zm0,8.84a.89.89,0,1,1,0,1.77.89.89,0,0,1,0-1.77ZM137.49,0a.89.89,0,1,1-.88.88A.88.88,0,0,1,137.49,0Zm0,2.21a.89.89,0,1,1-.88.88A.89.89,0,0,1,137.49,2.21Zm0,2.21a.89.89,0,1,1-.88.88A.89.89,0,0,1,137.49,4.42Zm0,2.21a.89.89,0,1,1-.88.88A.89.89,0,0,1,137.49,6.63Zm0,2.21a.89.89,0,1,1-.88.88A.89.89,0,0,1,137.49,8.84Zm0,2.21a.89.89,0,1,1-.88.89A.89.89,0,0,1,137.49,11.05Zm0,2.21a.89.89,0,1,1-.88.89A.89.89,0,0,1,137.49,13.26Z" transform="translate(0 0)"/><path class="cls-1" d="M145.45,4.42a.89.89,0,1,1-.88.88A.88.88,0,0,1,145.45,4.42Zm0,8.84a.89.89,0,1,1-.88.89A.88.88,0,0,1,145.45,13.26ZM148.1,0a.89.89,0,1,1-.88.88A.88.88,0,0,1,148.1,0Zm0,4.42a.89.89,0,1,1-.88.88A.89.89,0,0,1,148.1,4.42Zm0,2.21a.89.89,0,1,1-.88.88A.89.89,0,0,1,148.1,6.63Zm0,2.21a.89.89,0,1,1-.88.88A.89.89,0,0,1,148.1,8.84Zm0,2.21a.89.89,0,1,1-.88.89A.89.89,0,0,1,148.1,11.05Zm0,2.21a.89.89,0,1,1-.88.89A.89.89,0,0,1,148.1,13.26Zm2.66,0a.89.89,0,1,1-.89.89A.89.89,0,0,1,150.76,13.26Z" transform="translate(0 0)"/><path class="cls-1" d="M160,6.63a.89.89,0,0,1,0,1.77.89.89,0,1,1,0-1.77Zm0,2.21a.89.89,0,0,1,0,1.77.89.89,0,1,1,0-1.77Zm0,2.21a.89.89,0,1,1-.89.89A.88.88,0,0,1,160,11.05Zm1.33-6.63a.89.89,0,1,1-.89.88A.89.89,0,0,1,161.37,4.42Zm0,8.84a.89.89,0,1,1-.89.89A.89.89,0,0,1,161.37,13.26ZM164,4.42a.89.89,0,1,1-.89.88A.89.89,0,0,1,164,4.42Zm0,8.84a.89.89,0,1,1-.89.89A.89.89,0,0,1,164,13.26Zm2.65-8.84a.89.89,0,1,1-.88.88A.89.89,0,0,1,166.67,4.42Zm0,8.84a.89.89,0,1,1-.88.89A.89.89,0,0,1,166.67,13.26Zm2.66-8.84a.89.89,0,1,1-.89.88A.89.89,0,0,1,169.33,4.42Zm0,8.84a.89.89,0,1,1-.89.89A.89.89,0,0,1,169.33,13.26Zm1.32-6.63a.89.89,0,1,1-.88.88A.89.89,0,0,1,170.65,6.63Zm0,2.21a.89.89,0,1,1-.88.88A.89.89,0,0,1,170.65,8.84Zm0,2.21a.89.89,0,1,1-.88.89A.89.89,0,0,1,170.65,11.05Z" transform="translate(0 0)"/><path class="cls-1" d="M176,4.42a.89.89,0,1,1-.88.88A.89.89,0,0,1,176,4.42Zm0,2.21a.89.89,0,1,1-.88.88A.89.89,0,0,1,176,6.63Zm0,2.21a.89.89,0,1,1-.88.88A.89.89,0,0,1,176,8.84Zm0,2.21a.89.89,0,1,1-.88.89A.89.89,0,0,1,176,11.05Zm1.33,2.21a.89.89,0,1,1,0,1.77.89.89,0,0,1,0-1.77Zm2.65,0a.89.89,0,1,1-.88.89A.89.89,0,0,1,179.93,13.26Zm2.66,0a.89.89,0,1,1-.89.89A.89.89,0,0,1,182.59,13.26Zm2.65-8.84a.89.89,0,1,1-.88.88A.88.88,0,0,1,185.24,4.42Zm0,2.21a.89.89,0,1,1-.88.88A.88.88,0,0,1,185.24,6.63Zm0,2.21a.89.89,0,1,1-.88.88A.88.88,0,0,1,185.24,8.84Zm0,2.21a.89.89,0,1,1-.88.89A.88.88,0,0,1,185.24,11.05Zm1.33,2.21a.89.89,0,1,1-.89.89A.89.89,0,0,1,186.57,13.26Z" transform="translate(0 0)"/><path class="cls-1" d="M191.87,4.42a.89.89,0,1,1-.88.88A.88.88,0,0,1,191.87,4.42Zm0,2.21a.89.89,0,1,1-.88.88A.88.88,0,0,1,191.87,6.63Zm0,2.21a.89.89,0,1,1-.88.88A.88.88,0,0,1,191.87,8.84Zm0,2.21a.89.89,0,1,1-.88.89A.88.88,0,0,1,191.87,11.05Zm0,2.21a.89.89,0,1,1-.88.89A.88.88,0,0,1,191.87,13.26Zm2.65-6.63a.89.89,0,1,1-.88.88A.89.89,0,0,1,194.52,6.63Zm1.33-2.21a.89.89,0,0,1,0,1.77.89.89,0,1,1,0-1.77Zm2.65,0a.89.89,0,1,1-.88.88A.89.89,0,0,1,198.5,4.42Zm2.66,0a.89.89,0,1,1-.89.88A.89.89,0,0,1,201.16,4.42Z" transform="translate(0 0)"/><path class="cls-1" d="M207.79,0a.89.89,0,0,1,0,1.77.89.89,0,1,1,0-1.77Zm0,2.21a.89.89,0,1,1-.89.88A.89.89,0,0,1,207.79,2.21Zm0,2.21a.89.89,0,1,1-.89.88A.89.89,0,0,1,207.79,4.42Zm0,2.21a.89.89,0,1,1-.89.88A.89.89,0,0,1,207.79,6.63Zm0,2.21a.89.89,0,1,1-.89.88A.89.89,0,0,1,207.79,8.84Zm0,2.21a.89.89,0,1,1-.89.89A.89.89,0,0,1,207.79,11.05Zm0,2.21a.89.89,0,1,1-.89.89A.89.89,0,0,1,207.79,13.26Zm2.65-8.84a.89.89,0,1,1-.89.88A.89.89,0,0,1,210.44,4.42Zm0,8.84a.89.89,0,1,1-.89.89A.89.89,0,0,1,210.44,13.26Zm2.65-8.84a.89.89,0,1,1-.88.88A.89.89,0,0,1,213.09,4.42Zm0,8.84a.89.89,0,1,1,0,1.77.89.89,0,0,1,0-1.77Zm2.65-8.84a.89.89,0,1,1-.88.88A.89.89,0,0,1,215.74,4.42Zm0,8.84a.89.89,0,1,1-.88.89A.89.89,0,0,1,215.74,13.26Zm1.33-6.63a.89.89,0,1,1-.88.88A.89.89,0,0,1,217.07,6.63Zm0,2.21a.89.89,0,1,1-.88.88A.89.89,0,0,1,217.07,8.84Zm0,2.21a.89.89,0,1,1,0,1.77.89.89,0,0,1,0-1.77Z" transform="translate(0 0)"/><path class="cls-1" d="M223.7,11.05a.89.89,0,1,1-.88.89A.88.88,0,0,1,223.7,11.05ZM225,8.84a.89.89,0,1,1-.89.88A.89.89,0,0,1,225,8.84Zm0,4.42a.89.89,0,1,1-.89.89A.89.89,0,0,1,225,13.26Zm1.32-8.84a.89.89,0,1,1-.88.88A.89.89,0,0,1,226.35,4.42Zm1.33,4.42a.89.89,0,1,1-.88.88A.89.89,0,0,1,227.68,8.84Zm0,4.42a.89.89,0,1,1,0,1.77.89.89,0,0,1,0-1.77ZM229,4.42a.89.89,0,1,1-.89.88A.89.89,0,0,1,229,4.42Zm1.32,4.42a.89.89,0,1,1-.88.88A.89.89,0,0,1,230.33,8.84Zm0,4.42a.89.89,0,1,1-.88.89A.89.89,0,0,1,230.33,13.26Zm1.33-8.84a.89.89,0,1,1-.88.88A.88.88,0,0,1,231.66,4.42ZM233,6.63a.89.89,0,1,1-.89.88A.89.89,0,0,1,233,6.63Zm0,2.21a.89.89,0,1,1-.89.88A.89.89,0,0,1,233,8.84Zm0,2.21a.89.89,0,1,1-.89.89A.89.89,0,0,1,233,11.05Zm1.32,2.21a.89.89,0,1,1-.88.89A.89.89,0,0,1,234.31,13.26Z" transform="translate(0 0)"/><path class="cls-1" d="M239.62,4.42a.89.89,0,1,1-.89.88A.89.89,0,0,1,239.62,4.42Zm0,2.21a.89.89,0,1,1-.89.88A.89.89,0,0,1,239.62,6.63Zm0,2.21a.89.89,0,1,1-.89.88A.89.89,0,0,1,239.62,8.84Zm0,2.21a.89.89,0,1,1-.89.89A.89.89,0,0,1,239.62,11.05Zm0,2.21a.89.89,0,1,1-.89.89A.89.89,0,0,1,239.62,13.26Zm2.65-8.84a.89.89,0,0,1,0,1.77.89.89,0,1,1,0-1.77Zm2.65,0a.89.89,0,1,1-.88.88A.89.89,0,0,1,244.92,4.42Zm2.66,0a.89.89,0,1,1-.89.88A.89.89,0,0,1,247.58,4.42Zm1.32,2.21a.89.89,0,1,1-.88.88A.89.89,0,0,1,248.9,6.63Zm0,2.21a.89.89,0,1,1-.88.88A.89.89,0,0,1,248.9,8.84Zm0,2.21a.89.89,0,1,1-.88.89A.89.89,0,0,1,248.9,11.05Zm0,2.21a.89.89,0,1,1-.88.89A.89.89,0,0,1,248.9,13.26Z" transform="translate(0 0)"/><path class="cls-1" d="M258.18,11.05a.89.89,0,1,1-.88.89A.89.89,0,0,1,258.18,11.05Zm0,2.21a.89.89,0,1,1-.88.89A.89.89,0,0,1,258.18,13.26Zm2.66-2.21a.89.89,0,1,1-.89.89A.89.89,0,0,1,260.84,11.05Zm0,2.21a.89.89,0,1,1-.89.89A.89.89,0,0,1,260.84,13.26Z" transform="translate(0 0)"/><path class="cls-1" d="M271.45,6.63a.89.89,0,1,1-.89.88A.89.89,0,0,1,271.45,6.63Zm0,2.21a.89.89,0,1,1-.89.88A.89.89,0,0,1,271.45,8.84Zm0,2.21a.89.89,0,1,1-.89.89A.89.89,0,0,1,271.45,11.05Zm1.32-6.63a.89.89,0,1,1-.88.88A.89.89,0,0,1,272.77,4.42Zm0,8.84a.89.89,0,1,1-.88.89A.89.89,0,0,1,272.77,13.26Zm2.66-8.84a.89.89,0,1,1-.89.88A.89.89,0,0,1,275.43,4.42Zm0,8.84a.89.89,0,1,1-.89.89A.89.89,0,0,1,275.43,13.26Zm2.65-8.84a.89.89,0,1,1-.88.88A.88.88,0,0,1,278.08,4.42Zm0,8.84a.89.89,0,1,1-.88.89A.88.88,0,0,1,278.08,13.26Zm2.65-8.84a.89.89,0,1,1-.88.88A.89.89,0,0,1,280.73,4.42Zm0,8.84a.89.89,0,1,1-.88.89A.89.89,0,0,1,280.73,13.26Z" transform="translate(0 0)"/><path class="cls-1" d="M287.36,6.63a.89.89,0,1,1-.88.88A.89.89,0,0,1,287.36,6.63Zm0,2.21a.89.89,0,1,1-.88.88A.89.89,0,0,1,287.36,8.84Zm0,2.21a.89.89,0,1,1-.88.89A.89.89,0,0,1,287.36,11.05Zm1.33-6.63a.89.89,0,1,1-.89.88A.89.89,0,0,1,288.69,4.42Zm0,8.84a.89.89,0,1,1-.89.89A.89.89,0,0,1,288.69,13.26Zm2.65-8.84a.89.89,0,1,1-.88.88A.89.89,0,0,1,291.34,4.42Zm0,8.84a.89.89,0,1,1-.88.89A.89.89,0,0,1,291.34,13.26ZM294,4.42a.89.89,0,1,1-.89.88A.89.89,0,0,1,294,4.42Zm0,8.84a.89.89,0,1,1-.89.89A.89.89,0,0,1,294,13.26Zm2.65-8.84a.89.89,0,1,1-.89.88A.89.89,0,0,1,296.65,4.42Zm0,8.84a.89.89,0,1,1-.89.89A.89.89,0,0,1,296.65,13.26ZM298,6.63a.89.89,0,1,1-.88.88A.89.89,0,0,1,298,6.63Zm0,2.21a.89.89,0,1,1-.88.88A.89.89,0,0,1,298,8.84Zm0,2.21a.89.89,0,1,1-.88.89A.89.89,0,0,1,298,11.05Z" transform="translate(0 0)"/><path class="cls-1" d="M303.28,6.63a.89.89,0,1,1-.89.88A.89.89,0,0,1,303.28,6.63Zm0,2.21a.89.89,0,1,1-.89.88A.89.89,0,0,1,303.28,8.84Zm0,2.21a.89.89,0,1,1-.89.89A.89.89,0,0,1,303.28,11.05Zm0,2.21a.89.89,0,1,1-.89.89A.89.89,0,0,1,303.28,13.26Zm1.32-8.84a.89.89,0,1,1-.88.88A.89.89,0,0,1,304.6,4.42Zm2.66,0a.89.89,0,1,1-.89.88A.89.89,0,0,1,307.26,4.42Zm1.32,2.21a.89.89,0,1,1-.88.88A.89.89,0,0,1,308.58,6.63Zm0,2.21a.89.89,0,1,1-.88.88A.89.89,0,0,1,308.58,8.84Zm0,2.21a.89.89,0,1,1-.88.89A.89.89,0,0,1,308.58,11.05Zm0,2.21a.89.89,0,1,1-.88.89A.89.89,0,0,1,308.58,13.26Zm1.33-8.84a.89.89,0,1,1-.88.88A.88.88,0,0,1,309.91,4.42Zm2.65,0a.89.89,0,1,1-.88.88A.89.89,0,0,1,312.56,4.42Zm1.33,2.21a.89.89,0,1,1-.88.88A.88.88,0,0,1,313.89,6.63Zm0,2.21a.89.89,0,1,1-.88.88A.88.88,0,0,1,313.89,8.84Zm0,2.21a.89.89,0,1,1-.88.89A.88.88,0,0,1,313.89,11.05Zm0,2.21a.89.89,0,1,1-.88.89A.88.88,0,0,1,313.89,13.26Z" transform="translate(0 0)"/></g></g></svg>